<mxfile host="Electron" modified="2023-11-09T10:48:37.470Z" agent="Mozilla/5.0 (Windows NT 10.0; Win64; x64) AppleWebKit/537.36 (KHTML, like Gecko) draw.io/22.0.2 Chrome/114.0.5735.289 Electron/25.8.4 Safari/537.36" etag="CU9kUOVyqxTFpd8roNUt" version="22.0.2" type="device">
  <diagram name="Página-1" id="Q1o_X0vH4R446J4seOJe">
    <mxGraphModel dx="908" dy="1989" grid="1" gridSize="10" guides="1" tooltips="1" connect="1" arrows="1" fold="1" page="1" pageScale="1" pageWidth="827" pageHeight="1169" math="0" shadow="0">
      <root>
        <mxCell id="0" />
        <mxCell id="1" parent="0" />
        <mxCell id="3EePOaAs4NawGTgmt3iB-52" style="edgeStyle=orthogonalEdgeStyle;rounded=0;orthogonalLoop=1;jettySize=auto;html=1;exitX=0.5;exitY=1;exitDx=0;exitDy=0;entryX=0.5;entryY=0;entryDx=0;entryDy=0;" edge="1" parent="1" source="3EePOaAs4NawGTgmt3iB-1" target="3EePOaAs4NawGTgmt3iB-51">
          <mxGeometry relative="1" as="geometry" />
        </mxCell>
        <mxCell id="3EePOaAs4NawGTgmt3iB-143" style="edgeStyle=orthogonalEdgeStyle;rounded=0;orthogonalLoop=1;jettySize=auto;html=1;exitX=1;exitY=0.5;exitDx=0;exitDy=0;" edge="1" parent="1" source="3EePOaAs4NawGTgmt3iB-1" target="3EePOaAs4NawGTgmt3iB-142">
          <mxGeometry relative="1" as="geometry" />
        </mxCell>
        <mxCell id="3EePOaAs4NawGTgmt3iB-1" value="ZOO" style="rounded=0;whiteSpace=wrap;html=1;" vertex="1" parent="1">
          <mxGeometry x="860" y="-170" width="120" height="60" as="geometry" />
        </mxCell>
        <mxCell id="3EePOaAs4NawGTgmt3iB-10" style="edgeStyle=orthogonalEdgeStyle;rounded=0;orthogonalLoop=1;jettySize=auto;html=1;exitX=0;exitY=1;exitDx=0;exitDy=0;entryX=1;entryY=0.5;entryDx=0;entryDy=0;" edge="1" parent="1" source="3EePOaAs4NawGTgmt3iB-2" target="3EePOaAs4NawGTgmt3iB-5">
          <mxGeometry relative="1" as="geometry">
            <Array as="points">
              <mxPoint x="350" y="260" />
              <mxPoint x="350" y="335" />
            </Array>
          </mxGeometry>
        </mxCell>
        <mxCell id="3EePOaAs4NawGTgmt3iB-11" style="edgeStyle=orthogonalEdgeStyle;rounded=0;orthogonalLoop=1;jettySize=auto;html=1;exitX=0;exitY=1;exitDx=0;exitDy=0;entryX=1;entryY=0.5;entryDx=0;entryDy=0;" edge="1" parent="1" source="3EePOaAs4NawGTgmt3iB-2" target="3EePOaAs4NawGTgmt3iB-4">
          <mxGeometry relative="1" as="geometry">
            <Array as="points">
              <mxPoint x="350" y="260" />
              <mxPoint x="350" y="395" />
              <mxPoint x="310" y="395" />
            </Array>
          </mxGeometry>
        </mxCell>
        <mxCell id="3EePOaAs4NawGTgmt3iB-12" style="edgeStyle=orthogonalEdgeStyle;rounded=0;orthogonalLoop=1;jettySize=auto;html=1;exitX=0;exitY=1;exitDx=0;exitDy=0;entryX=1;entryY=0.5;entryDx=0;entryDy=0;" edge="1" parent="1" source="3EePOaAs4NawGTgmt3iB-2" target="3EePOaAs4NawGTgmt3iB-3">
          <mxGeometry relative="1" as="geometry">
            <Array as="points">
              <mxPoint x="350" y="260" />
              <mxPoint x="350" y="455" />
            </Array>
          </mxGeometry>
        </mxCell>
        <mxCell id="3EePOaAs4NawGTgmt3iB-13" style="edgeStyle=orthogonalEdgeStyle;rounded=0;orthogonalLoop=1;jettySize=auto;html=1;exitX=0;exitY=1;exitDx=0;exitDy=0;entryX=1;entryY=0.5;entryDx=0;entryDy=0;" edge="1" parent="1" source="3EePOaAs4NawGTgmt3iB-2" target="3EePOaAs4NawGTgmt3iB-7">
          <mxGeometry relative="1" as="geometry">
            <Array as="points">
              <mxPoint x="350" y="260" />
              <mxPoint x="350" y="515" />
            </Array>
          </mxGeometry>
        </mxCell>
        <mxCell id="3EePOaAs4NawGTgmt3iB-26" style="edgeStyle=orthogonalEdgeStyle;rounded=0;orthogonalLoop=1;jettySize=auto;html=1;exitX=0.5;exitY=1;exitDx=0;exitDy=0;entryX=0.5;entryY=0;entryDx=0;entryDy=0;" edge="1" parent="1" source="3EePOaAs4NawGTgmt3iB-2" target="3EePOaAs4NawGTgmt3iB-25">
          <mxGeometry relative="1" as="geometry" />
        </mxCell>
        <mxCell id="3EePOaAs4NawGTgmt3iB-128" style="edgeStyle=orthogonalEdgeStyle;rounded=0;orthogonalLoop=1;jettySize=auto;html=1;exitX=0;exitY=1;exitDx=0;exitDy=0;entryX=1;entryY=0.5;entryDx=0;entryDy=0;" edge="1" parent="1" source="3EePOaAs4NawGTgmt3iB-2" target="3EePOaAs4NawGTgmt3iB-127">
          <mxGeometry relative="1" as="geometry">
            <Array as="points">
              <mxPoint x="350" y="260" />
              <mxPoint x="350" y="565" />
              <mxPoint x="300" y="565" />
            </Array>
          </mxGeometry>
        </mxCell>
        <mxCell id="3EePOaAs4NawGTgmt3iB-2" value="ESPECIES" style="rounded=0;whiteSpace=wrap;html=1;" vertex="1" parent="1">
          <mxGeometry x="360" y="200" width="120" height="60" as="geometry" />
        </mxCell>
        <mxCell id="3EePOaAs4NawGTgmt3iB-3" value="Cuidados&lt;br&gt;específicos" style="ellipse;whiteSpace=wrap;html=1;" vertex="1" parent="1">
          <mxGeometry x="190" y="430" width="110" height="50" as="geometry" />
        </mxCell>
        <mxCell id="3EePOaAs4NawGTgmt3iB-4" value="Família" style="ellipse;whiteSpace=wrap;html=1;" vertex="1" parent="1">
          <mxGeometry x="190" y="365" width="120" height="50" as="geometry" />
        </mxCell>
        <mxCell id="3EePOaAs4NawGTgmt3iB-5" value="N.Científico" style="ellipse;whiteSpace=wrap;html=1;" vertex="1" parent="1">
          <mxGeometry x="190" y="310" width="110" height="50" as="geometry" />
        </mxCell>
        <mxCell id="3EePOaAs4NawGTgmt3iB-6" value="&lt;u&gt;N.Genérico&lt;/u&gt;" style="ellipse;whiteSpace=wrap;html=1;" vertex="1" parent="1">
          <mxGeometry x="190" y="260" width="110" height="40" as="geometry" />
        </mxCell>
        <mxCell id="3EePOaAs4NawGTgmt3iB-7" value="Explicación&lt;br&gt;de Especie" style="ellipse;whiteSpace=wrap;html=1;" vertex="1" parent="1">
          <mxGeometry x="185" y="490" width="120" height="50" as="geometry" />
        </mxCell>
        <mxCell id="3EePOaAs4NawGTgmt3iB-20" style="edgeStyle=orthogonalEdgeStyle;rounded=0;orthogonalLoop=1;jettySize=auto;html=1;exitX=1;exitY=1;exitDx=0;exitDy=0;entryX=0;entryY=0.5;entryDx=0;entryDy=0;" edge="1" parent="1" source="3EePOaAs4NawGTgmt3iB-8" target="3EePOaAs4NawGTgmt3iB-15">
          <mxGeometry relative="1" as="geometry" />
        </mxCell>
        <mxCell id="3EePOaAs4NawGTgmt3iB-22" style="edgeStyle=orthogonalEdgeStyle;rounded=0;orthogonalLoop=1;jettySize=auto;html=1;exitX=1;exitY=1;exitDx=0;exitDy=0;entryX=0;entryY=0.5;entryDx=0;entryDy=0;" edge="1" parent="1" source="3EePOaAs4NawGTgmt3iB-8" target="3EePOaAs4NawGTgmt3iB-18">
          <mxGeometry relative="1" as="geometry" />
        </mxCell>
        <mxCell id="3EePOaAs4NawGTgmt3iB-23" style="edgeStyle=orthogonalEdgeStyle;rounded=0;orthogonalLoop=1;jettySize=auto;html=1;exitX=1;exitY=1;exitDx=0;exitDy=0;entryX=0;entryY=0.5;entryDx=0;entryDy=0;" edge="1" parent="1" source="3EePOaAs4NawGTgmt3iB-8" target="3EePOaAs4NawGTgmt3iB-14">
          <mxGeometry relative="1" as="geometry" />
        </mxCell>
        <mxCell id="3EePOaAs4NawGTgmt3iB-24" style="edgeStyle=orthogonalEdgeStyle;rounded=0;orthogonalLoop=1;jettySize=auto;html=1;exitX=1;exitY=1;exitDx=0;exitDy=0;entryX=0;entryY=0.5;entryDx=0;entryDy=0;" edge="1" parent="1" source="3EePOaAs4NawGTgmt3iB-8" target="3EePOaAs4NawGTgmt3iB-16">
          <mxGeometry relative="1" as="geometry" />
        </mxCell>
        <mxCell id="3EePOaAs4NawGTgmt3iB-32" style="edgeStyle=orthogonalEdgeStyle;rounded=0;orthogonalLoop=1;jettySize=auto;html=1;exitX=1;exitY=0.5;exitDx=0;exitDy=0;entryX=0.5;entryY=1;entryDx=0;entryDy=0;" edge="1" parent="1" source="3EePOaAs4NawGTgmt3iB-8" target="3EePOaAs4NawGTgmt3iB-28">
          <mxGeometry relative="1" as="geometry">
            <Array as="points">
              <mxPoint x="480" y="590" />
              <mxPoint x="650" y="590" />
            </Array>
          </mxGeometry>
        </mxCell>
        <mxCell id="3EePOaAs4NawGTgmt3iB-8" value="EJEMPLAR" style="rounded=0;whiteSpace=wrap;html=1;" vertex="1" parent="1">
          <mxGeometry x="360" y="580" width="120" height="60" as="geometry" />
        </mxCell>
        <mxCell id="3EePOaAs4NawGTgmt3iB-9" style="edgeStyle=orthogonalEdgeStyle;rounded=0;orthogonalLoop=1;jettySize=auto;html=1;exitX=0;exitY=1;exitDx=0;exitDy=0;entryX=1.036;entryY=0.675;entryDx=0;entryDy=0;entryPerimeter=0;" edge="1" parent="1" source="3EePOaAs4NawGTgmt3iB-2" target="3EePOaAs4NawGTgmt3iB-6">
          <mxGeometry relative="1" as="geometry">
            <Array as="points">
              <mxPoint x="350" y="260" />
              <mxPoint x="350" y="287" />
            </Array>
          </mxGeometry>
        </mxCell>
        <mxCell id="3EePOaAs4NawGTgmt3iB-14" value="Fecha &lt;br&gt;Nacimiento" style="ellipse;whiteSpace=wrap;html=1;" vertex="1" parent="1">
          <mxGeometry x="500" y="770" width="100" height="40" as="geometry" />
        </mxCell>
        <mxCell id="3EePOaAs4NawGTgmt3iB-15" value="&lt;u&gt;Número&lt;/u&gt;" style="ellipse;whiteSpace=wrap;html=1;" vertex="1" parent="1">
          <mxGeometry x="500" y="650" width="100" height="40" as="geometry" />
        </mxCell>
        <mxCell id="3EePOaAs4NawGTgmt3iB-16" value="Fecha&lt;br&gt;Muerte" style="ellipse;whiteSpace=wrap;html=1;" vertex="1" parent="1">
          <mxGeometry x="500" y="810" width="100" height="40" as="geometry" />
        </mxCell>
        <mxCell id="3EePOaAs4NawGTgmt3iB-17" value="Nombre" style="ellipse;whiteSpace=wrap;html=1;" vertex="1" parent="1">
          <mxGeometry x="500" y="690" width="100" height="40" as="geometry" />
        </mxCell>
        <mxCell id="3EePOaAs4NawGTgmt3iB-18" value="Familia" style="ellipse;whiteSpace=wrap;html=1;" vertex="1" parent="1">
          <mxGeometry x="500" y="730" width="100" height="40" as="geometry" />
        </mxCell>
        <mxCell id="3EePOaAs4NawGTgmt3iB-95" style="edgeStyle=orthogonalEdgeStyle;rounded=0;orthogonalLoop=1;jettySize=auto;html=1;exitX=0.25;exitY=1;exitDx=0;exitDy=0;entryX=0;entryY=0.5;entryDx=0;entryDy=0;" edge="1" parent="1" source="3EePOaAs4NawGTgmt3iB-19" target="3EePOaAs4NawGTgmt3iB-94">
          <mxGeometry relative="1" as="geometry" />
        </mxCell>
        <mxCell id="3EePOaAs4NawGTgmt3iB-125" style="edgeStyle=orthogonalEdgeStyle;rounded=0;orthogonalLoop=1;jettySize=auto;html=1;exitX=0.75;exitY=1;exitDx=0;exitDy=0;entryX=0;entryY=0.5;entryDx=0;entryDy=0;" edge="1" parent="1" source="3EePOaAs4NawGTgmt3iB-19" target="3EePOaAs4NawGTgmt3iB-74">
          <mxGeometry relative="1" as="geometry" />
        </mxCell>
        <mxCell id="3EePOaAs4NawGTgmt3iB-126" style="edgeStyle=orthogonalEdgeStyle;rounded=0;orthogonalLoop=1;jettySize=auto;html=1;exitX=0.75;exitY=1;exitDx=0;exitDy=0;entryX=0;entryY=0.5;entryDx=0;entryDy=0;" edge="1" parent="1" source="3EePOaAs4NawGTgmt3iB-19" target="3EePOaAs4NawGTgmt3iB-49">
          <mxGeometry relative="1" as="geometry" />
        </mxCell>
        <mxCell id="3EePOaAs4NawGTgmt3iB-19" value="CUIDADOR" style="rounded=0;whiteSpace=wrap;html=1;" vertex="1" parent="1">
          <mxGeometry x="730" y="290" width="120" height="60" as="geometry" />
        </mxCell>
        <mxCell id="3EePOaAs4NawGTgmt3iB-21" style="edgeStyle=orthogonalEdgeStyle;rounded=0;orthogonalLoop=1;jettySize=auto;html=1;exitX=1;exitY=1;exitDx=0;exitDy=0;entryX=-0.02;entryY=0.675;entryDx=0;entryDy=0;entryPerimeter=0;" edge="1" parent="1" source="3EePOaAs4NawGTgmt3iB-8" target="3EePOaAs4NawGTgmt3iB-17">
          <mxGeometry relative="1" as="geometry">
            <Array as="points">
              <mxPoint x="480" y="707" />
            </Array>
          </mxGeometry>
        </mxCell>
        <mxCell id="3EePOaAs4NawGTgmt3iB-27" style="edgeStyle=orthogonalEdgeStyle;rounded=0;orthogonalLoop=1;jettySize=auto;html=1;exitX=0.5;exitY=1;exitDx=0;exitDy=0;entryX=0.5;entryY=0;entryDx=0;entryDy=0;" edge="1" parent="1" source="3EePOaAs4NawGTgmt3iB-25" target="3EePOaAs4NawGTgmt3iB-8">
          <mxGeometry relative="1" as="geometry" />
        </mxCell>
        <mxCell id="3EePOaAs4NawGTgmt3iB-25" value="tiene" style="rhombus;whiteSpace=wrap;html=1;" vertex="1" parent="1">
          <mxGeometry x="385" y="400" width="70" height="60" as="geometry" />
        </mxCell>
        <mxCell id="3EePOaAs4NawGTgmt3iB-33" style="edgeStyle=orthogonalEdgeStyle;rounded=0;orthogonalLoop=1;jettySize=auto;html=1;exitX=0.5;exitY=0;exitDx=0;exitDy=0;entryX=0;entryY=0.5;entryDx=0;entryDy=0;" edge="1" parent="1" source="3EePOaAs4NawGTgmt3iB-28" target="3EePOaAs4NawGTgmt3iB-19">
          <mxGeometry relative="1" as="geometry" />
        </mxCell>
        <mxCell id="3EePOaAs4NawGTgmt3iB-28" value="se asigna" style="rhombus;whiteSpace=wrap;html=1;" vertex="1" parent="1">
          <mxGeometry x="610" y="410" width="80" height="60" as="geometry" />
        </mxCell>
        <mxCell id="3EePOaAs4NawGTgmt3iB-47" style="edgeStyle=orthogonalEdgeStyle;rounded=0;orthogonalLoop=1;jettySize=auto;html=1;exitX=1;exitY=0.5;exitDx=0;exitDy=0;entryX=0;entryY=1;entryDx=0;entryDy=0;" edge="1" parent="1" source="3EePOaAs4NawGTgmt3iB-34" target="3EePOaAs4NawGTgmt3iB-28">
          <mxGeometry relative="1" as="geometry" />
        </mxCell>
        <mxCell id="3EePOaAs4NawGTgmt3iB-34" value="fecha Inicio" style="ellipse;whiteSpace=wrap;html=1;" vertex="1" parent="1">
          <mxGeometry x="530" y="440" width="80" height="40" as="geometry" />
        </mxCell>
        <mxCell id="3EePOaAs4NawGTgmt3iB-48" style="edgeStyle=orthogonalEdgeStyle;rounded=0;orthogonalLoop=1;jettySize=auto;html=1;exitX=1;exitY=0.5;exitDx=0;exitDy=0;entryX=0;entryY=0;entryDx=0;entryDy=0;" edge="1" parent="1" source="3EePOaAs4NawGTgmt3iB-46" target="3EePOaAs4NawGTgmt3iB-28">
          <mxGeometry relative="1" as="geometry" />
        </mxCell>
        <mxCell id="3EePOaAs4NawGTgmt3iB-46" value="fecha Fin" style="ellipse;whiteSpace=wrap;html=1;" vertex="1" parent="1">
          <mxGeometry x="530" y="390" width="80" height="40" as="geometry" />
        </mxCell>
        <mxCell id="3EePOaAs4NawGTgmt3iB-49" value="certificado" style="ellipse;whiteSpace=wrap;html=1;" vertex="1" parent="1">
          <mxGeometry x="835" y="390" width="95" height="40" as="geometry" />
        </mxCell>
        <mxCell id="3EePOaAs4NawGTgmt3iB-51" value="TIene" style="rhombus;whiteSpace=wrap;html=1;" vertex="1" parent="1">
          <mxGeometry x="880" y="-60" width="80" height="60" as="geometry" />
        </mxCell>
        <mxCell id="3EePOaAs4NawGTgmt3iB-84" style="edgeStyle=orthogonalEdgeStyle;rounded=0;orthogonalLoop=1;jettySize=auto;html=1;exitX=0.5;exitY=1;exitDx=0;exitDy=0;entryX=0;entryY=0;entryDx=0;entryDy=0;" edge="1" parent="1" source="3EePOaAs4NawGTgmt3iB-54" target="3EePOaAs4NawGTgmt3iB-82">
          <mxGeometry relative="1" as="geometry">
            <Array as="points">
              <mxPoint x="1020" y="573" />
            </Array>
          </mxGeometry>
        </mxCell>
        <mxCell id="3EePOaAs4NawGTgmt3iB-123" style="edgeStyle=orthogonalEdgeStyle;rounded=0;orthogonalLoop=1;jettySize=auto;html=1;exitX=0.75;exitY=1;exitDx=0;exitDy=0;entryX=0;entryY=0.5;entryDx=0;entryDy=0;" edge="1" parent="1" source="3EePOaAs4NawGTgmt3iB-54" target="3EePOaAs4NawGTgmt3iB-75">
          <mxGeometry relative="1" as="geometry" />
        </mxCell>
        <mxCell id="3EePOaAs4NawGTgmt3iB-130" style="edgeStyle=orthogonalEdgeStyle;rounded=0;orthogonalLoop=1;jettySize=auto;html=1;exitX=0.75;exitY=1;exitDx=0;exitDy=0;entryX=0;entryY=0.5;entryDx=0;entryDy=0;" edge="1" parent="1" source="3EePOaAs4NawGTgmt3iB-54" target="3EePOaAs4NawGTgmt3iB-129">
          <mxGeometry relative="1" as="geometry" />
        </mxCell>
        <mxCell id="3EePOaAs4NawGTgmt3iB-132" style="edgeStyle=orthogonalEdgeStyle;rounded=0;orthogonalLoop=1;jettySize=auto;html=1;exitX=1;exitY=0.5;exitDx=0;exitDy=0;entryX=1;entryY=0.5;entryDx=0;entryDy=0;" edge="1" parent="1" source="3EePOaAs4NawGTgmt3iB-54" target="3EePOaAs4NawGTgmt3iB-131">
          <mxGeometry relative="1" as="geometry">
            <Array as="points">
              <mxPoint x="1320" y="320" />
              <mxPoint x="1320" y="940" />
            </Array>
          </mxGeometry>
        </mxCell>
        <mxCell id="3EePOaAs4NawGTgmt3iB-139" style="edgeStyle=orthogonalEdgeStyle;rounded=0;orthogonalLoop=1;jettySize=auto;html=1;exitX=0.75;exitY=0;exitDx=0;exitDy=0;entryX=0;entryY=0.5;entryDx=0;entryDy=0;" edge="1" parent="1" source="3EePOaAs4NawGTgmt3iB-54" target="3EePOaAs4NawGTgmt3iB-138">
          <mxGeometry relative="1" as="geometry" />
        </mxCell>
        <mxCell id="3EePOaAs4NawGTgmt3iB-54" value="VOLUNTARIO" style="rounded=0;whiteSpace=wrap;html=1;" vertex="1" parent="1">
          <mxGeometry x="960" y="290" width="120" height="60" as="geometry" />
        </mxCell>
        <mxCell id="3EePOaAs4NawGTgmt3iB-61" value="&lt;u&gt;Id.Voluntario&lt;/u&gt;" style="ellipse;whiteSpace=wrap;html=1;" vertex="1" parent="1">
          <mxGeometry x="1070" y="360" width="100" height="40" as="geometry" />
        </mxCell>
        <mxCell id="3EePOaAs4NawGTgmt3iB-63" value="" style="edgeStyle=orthogonalEdgeStyle;rounded=0;orthogonalLoop=1;jettySize=auto;html=1;exitX=0.5;exitY=1;exitDx=0;exitDy=0;entryX=0.5;entryY=0;entryDx=0;entryDy=0;" edge="1" parent="1" source="3EePOaAs4NawGTgmt3iB-51" target="3EePOaAs4NawGTgmt3iB-62">
          <mxGeometry relative="1" as="geometry">
            <mxPoint x="920" as="sourcePoint" />
            <mxPoint x="1050" y="190" as="targetPoint" />
            <Array as="points" />
          </mxGeometry>
        </mxCell>
        <mxCell id="3EePOaAs4NawGTgmt3iB-70" style="edgeStyle=orthogonalEdgeStyle;rounded=0;orthogonalLoop=1;jettySize=auto;html=1;exitX=0.5;exitY=1;exitDx=0;exitDy=0;entryX=0;entryY=0.5;entryDx=0;entryDy=0;" edge="1" parent="1" source="3EePOaAs4NawGTgmt3iB-62" target="3EePOaAs4NawGTgmt3iB-69">
          <mxGeometry relative="1" as="geometry" />
        </mxCell>
        <mxCell id="3EePOaAs4NawGTgmt3iB-76" style="edgeStyle=orthogonalEdgeStyle;rounded=0;orthogonalLoop=1;jettySize=auto;html=1;exitX=1;exitY=0.5;exitDx=0;exitDy=0;entryX=0;entryY=0.5;entryDx=0;entryDy=0;" edge="1" parent="1" source="3EePOaAs4NawGTgmt3iB-62" target="3EePOaAs4NawGTgmt3iB-64">
          <mxGeometry relative="1" as="geometry">
            <Array as="points">
              <mxPoint x="1000" y="70" />
              <mxPoint x="1000" y="10" />
            </Array>
          </mxGeometry>
        </mxCell>
        <mxCell id="3EePOaAs4NawGTgmt3iB-77" style="edgeStyle=orthogonalEdgeStyle;rounded=0;orthogonalLoop=1;jettySize=auto;html=1;exitX=1;exitY=0.5;exitDx=0;exitDy=0;entryX=0;entryY=0.5;entryDx=0;entryDy=0;" edge="1" parent="1" source="3EePOaAs4NawGTgmt3iB-62" target="3EePOaAs4NawGTgmt3iB-65">
          <mxGeometry relative="1" as="geometry">
            <Array as="points">
              <mxPoint x="1000" y="70" />
              <mxPoint x="1000" y="50" />
            </Array>
          </mxGeometry>
        </mxCell>
        <mxCell id="3EePOaAs4NawGTgmt3iB-78" style="edgeStyle=orthogonalEdgeStyle;rounded=0;orthogonalLoop=1;jettySize=auto;html=1;exitX=1;exitY=0.5;exitDx=0;exitDy=0;entryX=0;entryY=0.5;entryDx=0;entryDy=0;" edge="1" parent="1" source="3EePOaAs4NawGTgmt3iB-62" target="3EePOaAs4NawGTgmt3iB-66">
          <mxGeometry relative="1" as="geometry" />
        </mxCell>
        <mxCell id="3EePOaAs4NawGTgmt3iB-79" style="edgeStyle=orthogonalEdgeStyle;rounded=0;orthogonalLoop=1;jettySize=auto;html=1;exitX=1;exitY=0.5;exitDx=0;exitDy=0;entryX=0;entryY=0.5;entryDx=0;entryDy=0;" edge="1" parent="1" source="3EePOaAs4NawGTgmt3iB-62" target="3EePOaAs4NawGTgmt3iB-67">
          <mxGeometry relative="1" as="geometry" />
        </mxCell>
        <mxCell id="3EePOaAs4NawGTgmt3iB-80" style="edgeStyle=orthogonalEdgeStyle;rounded=0;orthogonalLoop=1;jettySize=auto;html=1;exitX=1;exitY=0.5;exitDx=0;exitDy=0;entryX=0;entryY=0.5;entryDx=0;entryDy=0;" edge="1" parent="1" source="3EePOaAs4NawGTgmt3iB-62" target="3EePOaAs4NawGTgmt3iB-68">
          <mxGeometry relative="1" as="geometry" />
        </mxCell>
        <mxCell id="3EePOaAs4NawGTgmt3iB-62" value="PERSONA" style="rounded=0;whiteSpace=wrap;html=1;" vertex="1" parent="1">
          <mxGeometry x="860" y="40" width="120" height="60" as="geometry" />
        </mxCell>
        <mxCell id="3EePOaAs4NawGTgmt3iB-64" value="&lt;u&gt;DNI&lt;/u&gt;" style="ellipse;whiteSpace=wrap;html=1;" vertex="1" parent="1">
          <mxGeometry x="1025" y="-10" width="100" height="40" as="geometry" />
        </mxCell>
        <mxCell id="3EePOaAs4NawGTgmt3iB-65" value="Nombre" style="ellipse;whiteSpace=wrap;html=1;" vertex="1" parent="1">
          <mxGeometry x="1030" y="30" width="90" height="40" as="geometry" />
        </mxCell>
        <mxCell id="3EePOaAs4NawGTgmt3iB-66" value="1ºApellido" style="ellipse;whiteSpace=wrap;html=1;" vertex="1" parent="1">
          <mxGeometry x="1025" y="70" width="100" height="40" as="geometry" />
        </mxCell>
        <mxCell id="3EePOaAs4NawGTgmt3iB-67" value="2ºApellido" style="ellipse;whiteSpace=wrap;html=1;" vertex="1" parent="1">
          <mxGeometry x="1025" y="110" width="100" height="40" as="geometry" />
        </mxCell>
        <mxCell id="3EePOaAs4NawGTgmt3iB-68" value="Teléfonos" style="ellipse;shape=doubleEllipse;margin=3;whiteSpace=wrap;html=1;align=center;" vertex="1" parent="1">
          <mxGeometry x="1025" y="150" width="100" height="40" as="geometry" />
        </mxCell>
        <mxCell id="3EePOaAs4NawGTgmt3iB-71" style="edgeStyle=orthogonalEdgeStyle;rounded=0;orthogonalLoop=1;jettySize=auto;html=1;exitX=1;exitY=0.5;exitDx=0;exitDy=0;entryX=0.5;entryY=0;entryDx=0;entryDy=0;" edge="1" parent="1" source="3EePOaAs4NawGTgmt3iB-69" target="3EePOaAs4NawGTgmt3iB-19">
          <mxGeometry relative="1" as="geometry">
            <Array as="points">
              <mxPoint x="920" y="260" />
              <mxPoint x="790" y="260" />
            </Array>
          </mxGeometry>
        </mxCell>
        <mxCell id="3EePOaAs4NawGTgmt3iB-72" style="edgeStyle=orthogonalEdgeStyle;rounded=0;orthogonalLoop=1;jettySize=auto;html=1;exitX=1;exitY=0.5;exitDx=0;exitDy=0;entryX=0.5;entryY=0;entryDx=0;entryDy=0;" edge="1" parent="1" source="3EePOaAs4NawGTgmt3iB-117" target="3EePOaAs4NawGTgmt3iB-54">
          <mxGeometry relative="1" as="geometry">
            <Array as="points">
              <mxPoint x="920" y="260" />
              <mxPoint x="1020" y="260" />
            </Array>
          </mxGeometry>
        </mxCell>
        <mxCell id="3EePOaAs4NawGTgmt3iB-69" value="IS A" style="triangle;whiteSpace=wrap;html=1;rotation=90;" vertex="1" parent="1">
          <mxGeometry x="890" y="150" width="60" height="80" as="geometry" />
        </mxCell>
        <mxCell id="3EePOaAs4NawGTgmt3iB-74" value="&lt;u&gt;Id. cuidador&lt;/u&gt;" style="ellipse;whiteSpace=wrap;html=1;" vertex="1" parent="1">
          <mxGeometry x="835" y="360" width="100" height="30" as="geometry" />
        </mxCell>
        <mxCell id="3EePOaAs4NawGTgmt3iB-75" value="F. de Naciomiento" style="ellipse;whiteSpace=wrap;html=1;" vertex="1" parent="1">
          <mxGeometry x="1070" y="400" width="100" height="40" as="geometry" />
        </mxCell>
        <mxCell id="3EePOaAs4NawGTgmt3iB-90" style="edgeStyle=orthogonalEdgeStyle;rounded=0;orthogonalLoop=1;jettySize=auto;html=1;exitX=0;exitY=0.5;exitDx=0;exitDy=0;entryX=1;entryY=0.5;entryDx=0;entryDy=0;" edge="1" parent="1" source="3EePOaAs4NawGTgmt3iB-81">
          <mxGeometry relative="1" as="geometry">
            <mxPoint x="820" y="755" as="targetPoint" />
          </mxGeometry>
        </mxCell>
        <mxCell id="3EePOaAs4NawGTgmt3iB-81" value="Visita" style="rounded=0;whiteSpace=wrap;html=1;" vertex="1" parent="1">
          <mxGeometry x="1007.5" y="780" width="120" height="60" as="geometry" />
        </mxCell>
        <mxCell id="3EePOaAs4NawGTgmt3iB-85" style="edgeStyle=orthogonalEdgeStyle;rounded=0;orthogonalLoop=1;jettySize=auto;html=1;exitX=0.5;exitY=1;exitDx=0;exitDy=0;entryX=0.5;entryY=0;entryDx=0;entryDy=0;" edge="1" parent="1" source="3EePOaAs4NawGTgmt3iB-82" target="3EePOaAs4NawGTgmt3iB-81">
          <mxGeometry relative="1" as="geometry" />
        </mxCell>
        <mxCell id="3EePOaAs4NawGTgmt3iB-82" value="Se recompensa" style="rhombus;whiteSpace=wrap;html=1;" vertex="1" parent="1">
          <mxGeometry x="1020" y="550" width="95" height="90" as="geometry" />
        </mxCell>
        <mxCell id="3EePOaAs4NawGTgmt3iB-86" value="Incidencias" style="ellipse;whiteSpace=wrap;html=1;" vertex="1" parent="1">
          <mxGeometry x="1170" y="835" width="90" height="40" as="geometry" />
        </mxCell>
        <mxCell id="3EePOaAs4NawGTgmt3iB-87" value="Hora" style="ellipse;whiteSpace=wrap;html=1;" vertex="1" parent="1">
          <mxGeometry x="1162.75" y="795" width="99" height="40" as="geometry" />
        </mxCell>
        <mxCell id="3EePOaAs4NawGTgmt3iB-88" value="Día" style="ellipse;whiteSpace=wrap;html=1;" vertex="1" parent="1">
          <mxGeometry x="1166" y="755" width="92.5" height="40" as="geometry" />
        </mxCell>
        <mxCell id="3EePOaAs4NawGTgmt3iB-96" style="edgeStyle=orthogonalEdgeStyle;rounded=0;orthogonalLoop=1;jettySize=auto;html=1;exitX=1;exitY=0.5;exitDx=0;exitDy=0;entryX=0;entryY=0;entryDx=0;entryDy=0;" edge="1" parent="1" source="3EePOaAs4NawGTgmt3iB-94" target="3EePOaAs4NawGTgmt3iB-81">
          <mxGeometry relative="1" as="geometry">
            <Array as="points">
              <mxPoint x="900" y="670" />
              <mxPoint x="1008" y="670" />
            </Array>
          </mxGeometry>
        </mxCell>
        <mxCell id="3EePOaAs4NawGTgmt3iB-94" value="Supervisa" style="rhombus;whiteSpace=wrap;html=1;" vertex="1" parent="1">
          <mxGeometry x="820" y="550" width="80" height="80" as="geometry" />
        </mxCell>
        <mxCell id="3EePOaAs4NawGTgmt3iB-97" value="&lt;u&gt;Id. Visita&lt;/u&gt;" style="ellipse;whiteSpace=wrap;html=1;" vertex="1" parent="1">
          <mxGeometry x="1170" y="710" width="100" height="40" as="geometry" />
        </mxCell>
        <mxCell id="3EePOaAs4NawGTgmt3iB-98" value="(o,n)" style="text;html=1;align=center;verticalAlign=middle;resizable=0;points=[];autosize=1;strokeColor=none;fillColor=none;" vertex="1" parent="1">
          <mxGeometry x="414" y="555" width="50" height="30" as="geometry" />
        </mxCell>
        <mxCell id="3EePOaAs4NawGTgmt3iB-99" value="(1,1)" style="text;html=1;align=center;verticalAlign=middle;resizable=0;points=[];autosize=1;strokeColor=none;fillColor=none;" vertex="1" parent="1">
          <mxGeometry x="414" y="260" width="50" height="30" as="geometry" />
        </mxCell>
        <mxCell id="3EePOaAs4NawGTgmt3iB-100" value="1:N" style="text;html=1;align=center;verticalAlign=middle;resizable=0;points=[];autosize=1;strokeColor=none;fillColor=none;" vertex="1" parent="1">
          <mxGeometry x="450" y="415" width="40" height="30" as="geometry" />
        </mxCell>
        <mxCell id="3EePOaAs4NawGTgmt3iB-101" value="(0,n)" style="text;html=1;align=center;verticalAlign=middle;resizable=0;points=[];autosize=1;strokeColor=none;fillColor=none;" vertex="1" parent="1">
          <mxGeometry x="965" y="788" width="50" height="30" as="geometry" />
        </mxCell>
        <mxCell id="3EePOaAs4NawGTgmt3iB-102" value="(o,n)" style="text;html=1;align=center;verticalAlign=middle;resizable=0;points=[];autosize=1;strokeColor=none;fillColor=none;" vertex="1" parent="1">
          <mxGeometry x="480" y="600" width="50" height="30" as="geometry" />
        </mxCell>
        <mxCell id="3EePOaAs4NawGTgmt3iB-103" value="N:M" style="text;html=1;align=center;verticalAlign=middle;resizable=0;points=[];autosize=1;strokeColor=none;fillColor=none;" vertex="1" parent="1">
          <mxGeometry x="755" y="795" width="50" height="30" as="geometry" />
        </mxCell>
        <mxCell id="3EePOaAs4NawGTgmt3iB-104" value="Es hecha" style="rhombus;whiteSpace=wrap;html=1;" vertex="1" parent="1">
          <mxGeometry x="740" y="720" width="80" height="80" as="geometry" />
        </mxCell>
        <mxCell id="3EePOaAs4NawGTgmt3iB-105" style="edgeStyle=orthogonalEdgeStyle;rounded=0;orthogonalLoop=1;jettySize=auto;html=1;exitX=0;exitY=0.5;exitDx=0;exitDy=0;entryX=0.04;entryY=0.7;entryDx=0;entryDy=0;entryPerimeter=0;" edge="1" parent="1" source="3EePOaAs4NawGTgmt3iB-104" target="3EePOaAs4NawGTgmt3iB-102">
          <mxGeometry relative="1" as="geometry">
            <Array as="points">
              <mxPoint x="740" y="630" />
              <mxPoint x="482" y="630" />
            </Array>
          </mxGeometry>
        </mxCell>
        <mxCell id="3EePOaAs4NawGTgmt3iB-106" value="(1,n)" style="text;html=1;align=center;verticalAlign=middle;resizable=0;points=[];autosize=1;strokeColor=none;fillColor=none;" vertex="1" parent="1">
          <mxGeometry x="755" y="350" width="50" height="30" as="geometry" />
        </mxCell>
        <mxCell id="3EePOaAs4NawGTgmt3iB-107" value="(0,n)" style="text;html=1;align=center;verticalAlign=middle;resizable=0;points=[];autosize=1;strokeColor=none;fillColor=none;" vertex="1" parent="1">
          <mxGeometry x="995" y="755" width="50" height="30" as="geometry" />
        </mxCell>
        <mxCell id="3EePOaAs4NawGTgmt3iB-108" value="N:M" style="text;html=1;align=center;verticalAlign=middle;resizable=0;points=[];autosize=1;strokeColor=none;fillColor=none;" vertex="1" parent="1">
          <mxGeometry x="835" y="520" width="50" height="30" as="geometry" />
        </mxCell>
        <mxCell id="3EePOaAs4NawGTgmt3iB-109" value="(0,n)" style="text;html=1;align=center;verticalAlign=middle;resizable=0;points=[];autosize=1;strokeColor=none;fillColor=none;" vertex="1" parent="1">
          <mxGeometry x="965" y="348" width="50" height="30" as="geometry" />
        </mxCell>
        <mxCell id="3EePOaAs4NawGTgmt3iB-110" value="(0,n)" style="text;html=1;align=center;verticalAlign=middle;resizable=0;points=[];autosize=1;strokeColor=none;fillColor=none;" vertex="1" parent="1">
          <mxGeometry x="1065" y="750" width="50" height="30" as="geometry" />
        </mxCell>
        <mxCell id="3EePOaAs4NawGTgmt3iB-111" value="N:M" style="text;html=1;align=center;verticalAlign=middle;resizable=0;points=[];autosize=1;strokeColor=none;fillColor=none;" vertex="1" parent="1">
          <mxGeometry x="1110" y="580" width="50" height="30" as="geometry" />
        </mxCell>
        <mxCell id="3EePOaAs4NawGTgmt3iB-113" style="edgeStyle=orthogonalEdgeStyle;rounded=0;orthogonalLoop=1;jettySize=auto;html=1;exitX=1;exitY=0.5;exitDx=0;exitDy=0;entryX=0;entryY=0.5;entryDx=0;entryDy=0;" edge="1" parent="1" source="3EePOaAs4NawGTgmt3iB-112" target="3EePOaAs4NawGTgmt3iB-97">
          <mxGeometry relative="1" as="geometry">
            <Array as="points">
              <mxPoint x="1130" y="810" />
              <mxPoint x="1130" y="730" />
            </Array>
          </mxGeometry>
        </mxCell>
        <mxCell id="3EePOaAs4NawGTgmt3iB-114" style="edgeStyle=orthogonalEdgeStyle;rounded=0;orthogonalLoop=1;jettySize=auto;html=1;entryX=0;entryY=0.5;entryDx=0;entryDy=0;" edge="1" parent="1" target="3EePOaAs4NawGTgmt3iB-88">
          <mxGeometry relative="1" as="geometry">
            <mxPoint x="1130" y="810" as="sourcePoint" />
          </mxGeometry>
        </mxCell>
        <mxCell id="3EePOaAs4NawGTgmt3iB-112" value="VISITA" style="shape=ext;margin=3;double=1;whiteSpace=wrap;html=1;align=center;" vertex="1" parent="1">
          <mxGeometry x="1006.25" y="780" width="122.5" height="60" as="geometry" />
        </mxCell>
        <mxCell id="3EePOaAs4NawGTgmt3iB-115" style="edgeStyle=orthogonalEdgeStyle;rounded=0;orthogonalLoop=1;jettySize=auto;html=1;exitX=1;exitY=0.5;exitDx=0;exitDy=0;entryX=0.043;entryY=0.675;entryDx=0;entryDy=0;entryPerimeter=0;" edge="1" parent="1" source="3EePOaAs4NawGTgmt3iB-112" target="3EePOaAs4NawGTgmt3iB-87">
          <mxGeometry relative="1" as="geometry" />
        </mxCell>
        <mxCell id="3EePOaAs4NawGTgmt3iB-116" style="edgeStyle=orthogonalEdgeStyle;rounded=0;orthogonalLoop=1;jettySize=auto;html=1;exitX=1;exitY=0.5;exitDx=0;exitDy=0;entryX=0;entryY=0.725;entryDx=0;entryDy=0;entryPerimeter=0;" edge="1" parent="1" source="3EePOaAs4NawGTgmt3iB-112" target="3EePOaAs4NawGTgmt3iB-86">
          <mxGeometry relative="1" as="geometry" />
        </mxCell>
        <mxCell id="3EePOaAs4NawGTgmt3iB-117" value="" style="shape=requiredInterface;html=1;verticalLabelPosition=bottom;sketch=0;rotation=90;" vertex="1" parent="1">
          <mxGeometry x="915" y="200" width="10" height="60" as="geometry" />
        </mxCell>
        <mxCell id="3EePOaAs4NawGTgmt3iB-119" value="(1,1)" style="text;html=1;align=center;verticalAlign=middle;resizable=0;points=[];autosize=1;strokeColor=none;fillColor=none;" vertex="1" parent="1">
          <mxGeometry x="870" y="-110" width="50" height="30" as="geometry" />
        </mxCell>
        <mxCell id="3EePOaAs4NawGTgmt3iB-120" value="(1,n)" style="text;html=1;align=center;verticalAlign=middle;resizable=0;points=[];autosize=1;strokeColor=none;fillColor=none;" vertex="1" parent="1">
          <mxGeometry x="875" y="8" width="50" height="30" as="geometry" />
        </mxCell>
        <mxCell id="3EePOaAs4NawGTgmt3iB-121" value="1:N" style="text;html=1;align=center;verticalAlign=middle;resizable=0;points=[];autosize=1;strokeColor=none;fillColor=none;" vertex="1" parent="1">
          <mxGeometry x="845" y="-45" width="40" height="30" as="geometry" />
        </mxCell>
        <mxCell id="3EePOaAs4NawGTgmt3iB-122" style="edgeStyle=orthogonalEdgeStyle;rounded=0;orthogonalLoop=1;jettySize=auto;html=1;exitX=0.75;exitY=1;exitDx=0;exitDy=0;entryX=0;entryY=0.7;entryDx=0;entryDy=0;entryPerimeter=0;" edge="1" parent="1" source="3EePOaAs4NawGTgmt3iB-54" target="3EePOaAs4NawGTgmt3iB-61">
          <mxGeometry relative="1" as="geometry" />
        </mxCell>
        <mxCell id="3EePOaAs4NawGTgmt3iB-127" value="Permisos" style="ellipse;whiteSpace=wrap;html=1;" vertex="1" parent="1">
          <mxGeometry x="190" y="550" width="110" height="40" as="geometry" />
        </mxCell>
        <mxCell id="3EePOaAs4NawGTgmt3iB-129" value="Gustos" style="ellipse;whiteSpace=wrap;html=1;" vertex="1" parent="1">
          <mxGeometry x="1070" y="445" width="100" height="35" as="geometry" />
        </mxCell>
        <mxCell id="3EePOaAs4NawGTgmt3iB-161" style="edgeStyle=orthogonalEdgeStyle;rounded=0;orthogonalLoop=1;jettySize=auto;html=1;exitX=1;exitY=1;exitDx=0;exitDy=0;entryX=0;entryY=0.5;entryDx=0;entryDy=0;" edge="1" parent="1" source="3EePOaAs4NawGTgmt3iB-131" target="3EePOaAs4NawGTgmt3iB-160">
          <mxGeometry relative="1" as="geometry" />
        </mxCell>
        <mxCell id="3EePOaAs4NawGTgmt3iB-162" style="edgeStyle=orthogonalEdgeStyle;rounded=0;orthogonalLoop=1;jettySize=auto;html=1;exitX=1;exitY=1;exitDx=0;exitDy=0;entryX=0;entryY=0.5;entryDx=0;entryDy=0;" edge="1" parent="1" source="3EePOaAs4NawGTgmt3iB-131" target="3EePOaAs4NawGTgmt3iB-159">
          <mxGeometry relative="1" as="geometry">
            <Array as="points">
              <mxPoint x="830" y="960" />
              <mxPoint x="830" y="993" />
            </Array>
          </mxGeometry>
        </mxCell>
        <mxCell id="3EePOaAs4NawGTgmt3iB-131" value="Cuida" style="rhombus;whiteSpace=wrap;html=1;" vertex="1" parent="1">
          <mxGeometry x="765" y="900" width="80" height="80" as="geometry" />
        </mxCell>
        <mxCell id="3EePOaAs4NawGTgmt3iB-133" style="edgeStyle=orthogonalEdgeStyle;rounded=0;orthogonalLoop=1;jettySize=auto;html=1;exitX=0;exitY=0.5;exitDx=0;exitDy=0;entryX=0.342;entryY=1.033;entryDx=0;entryDy=0;entryPerimeter=0;" edge="1" parent="1" source="3EePOaAs4NawGTgmt3iB-131" target="3EePOaAs4NawGTgmt3iB-8">
          <mxGeometry relative="1" as="geometry" />
        </mxCell>
        <mxCell id="3EePOaAs4NawGTgmt3iB-134" value="(0,n)" style="text;html=1;align=center;verticalAlign=middle;resizable=0;points=[];autosize=1;strokeColor=none;fillColor=none;" vertex="1" parent="1">
          <mxGeometry x="395" y="638" width="50" height="30" as="geometry" />
        </mxCell>
        <mxCell id="3EePOaAs4NawGTgmt3iB-135" value="(o,n)" style="text;html=1;align=center;verticalAlign=middle;resizable=0;points=[];autosize=1;strokeColor=none;fillColor=none;" vertex="1" parent="1">
          <mxGeometry x="1075" y="290" width="50" height="30" as="geometry" />
        </mxCell>
        <mxCell id="3EePOaAs4NawGTgmt3iB-136" value="N:M" style="text;html=1;align=center;verticalAlign=middle;resizable=0;points=[];autosize=1;strokeColor=none;fillColor=none;" vertex="1" parent="1">
          <mxGeometry x="775" y="978" width="50" height="30" as="geometry" />
        </mxCell>
        <mxCell id="3EePOaAs4NawGTgmt3iB-152" style="edgeStyle=orthogonalEdgeStyle;rounded=0;orthogonalLoop=1;jettySize=auto;html=1;exitX=0.75;exitY=1;exitDx=0;exitDy=0;entryX=0.5;entryY=0;entryDx=0;entryDy=0;" edge="1" parent="1" source="3EePOaAs4NawGTgmt3iB-137" target="3EePOaAs4NawGTgmt3iB-151">
          <mxGeometry relative="1" as="geometry" />
        </mxCell>
        <mxCell id="3EePOaAs4NawGTgmt3iB-137" value="ZONA" style="rounded=0;whiteSpace=wrap;html=1;" vertex="1" parent="1">
          <mxGeometry x="1290" y="160" width="120" height="60" as="geometry" />
        </mxCell>
        <mxCell id="3EePOaAs4NawGTgmt3iB-140" style="edgeStyle=orthogonalEdgeStyle;rounded=0;orthogonalLoop=1;jettySize=auto;html=1;exitX=1;exitY=0.5;exitDx=0;exitDy=0;entryX=0.5;entryY=1;entryDx=0;entryDy=0;" edge="1" parent="1" source="3EePOaAs4NawGTgmt3iB-138" target="3EePOaAs4NawGTgmt3iB-137">
          <mxGeometry relative="1" as="geometry" />
        </mxCell>
        <mxCell id="3EePOaAs4NawGTgmt3iB-138" value="Acondiciona" style="rhombus;whiteSpace=wrap;html=1;" vertex="1" parent="1">
          <mxGeometry x="1166" y="210" width="70" height="60" as="geometry" />
        </mxCell>
        <mxCell id="3EePOaAs4NawGTgmt3iB-141" value="&lt;u&gt;Id.Zona&lt;/u&gt;" style="ellipse;whiteSpace=wrap;html=1;" vertex="1" parent="1">
          <mxGeometry x="1380" y="110" width="100" height="40" as="geometry" />
        </mxCell>
        <mxCell id="3EePOaAs4NawGTgmt3iB-144" style="edgeStyle=orthogonalEdgeStyle;rounded=0;orthogonalLoop=1;jettySize=auto;html=1;exitX=0.5;exitY=1;exitDx=0;exitDy=0;entryX=0.5;entryY=0;entryDx=0;entryDy=0;" edge="1" parent="1" source="3EePOaAs4NawGTgmt3iB-142" target="3EePOaAs4NawGTgmt3iB-137">
          <mxGeometry relative="1" as="geometry" />
        </mxCell>
        <mxCell id="3EePOaAs4NawGTgmt3iB-142" value="Tiene" style="rhombus;whiteSpace=wrap;html=1;" vertex="1" parent="1">
          <mxGeometry x="1241" y="-72" width="80" height="80" as="geometry" />
        </mxCell>
        <mxCell id="3EePOaAs4NawGTgmt3iB-145" value="(1,n)" style="text;html=1;align=center;verticalAlign=middle;resizable=0;points=[];autosize=1;strokeColor=none;fillColor=none;" vertex="1" parent="1">
          <mxGeometry x="1300" y="130" width="50" height="30" as="geometry" />
        </mxCell>
        <mxCell id="3EePOaAs4NawGTgmt3iB-146" value="(1,1)" style="text;html=1;align=center;verticalAlign=middle;resizable=0;points=[];autosize=1;strokeColor=none;fillColor=none;" vertex="1" parent="1">
          <mxGeometry x="975" y="-170" width="50" height="30" as="geometry" />
        </mxCell>
        <mxCell id="3EePOaAs4NawGTgmt3iB-147" value="1:N" style="text;html=1;align=center;verticalAlign=middle;resizable=0;points=[];autosize=1;strokeColor=none;fillColor=none;" vertex="1" parent="1">
          <mxGeometry x="1321" y="-47" width="40" height="30" as="geometry" />
        </mxCell>
        <mxCell id="3EePOaAs4NawGTgmt3iB-148" value="(0,1)" style="text;html=1;align=center;verticalAlign=middle;resizable=0;points=[];autosize=1;strokeColor=none;fillColor=none;" vertex="1" parent="1">
          <mxGeometry x="1042.5" y="265" width="50" height="30" as="geometry" />
        </mxCell>
        <mxCell id="3EePOaAs4NawGTgmt3iB-149" value="(0,1)" style="text;html=1;align=center;verticalAlign=middle;resizable=0;points=[];autosize=1;strokeColor=none;fillColor=none;" vertex="1" parent="1">
          <mxGeometry x="1305" y="218" width="50" height="30" as="geometry" />
        </mxCell>
        <mxCell id="3EePOaAs4NawGTgmt3iB-150" value="1:1" style="text;html=1;align=center;verticalAlign=middle;resizable=0;points=[];autosize=1;strokeColor=none;fillColor=none;" vertex="1" parent="1">
          <mxGeometry x="1180" y="178" width="40" height="30" as="geometry" />
        </mxCell>
        <mxCell id="3EePOaAs4NawGTgmt3iB-153" style="edgeStyle=orthogonalEdgeStyle;rounded=0;orthogonalLoop=1;jettySize=auto;html=1;exitX=0.5;exitY=1;exitDx=0;exitDy=0;entryX=0;entryY=1;entryDx=0;entryDy=0;" edge="1" parent="1" source="3EePOaAs4NawGTgmt3iB-151" target="3EePOaAs4NawGTgmt3iB-8">
          <mxGeometry relative="1" as="geometry">
            <Array as="points">
              <mxPoint x="1380" y="1050" />
              <mxPoint x="360" y="1050" />
            </Array>
          </mxGeometry>
        </mxCell>
        <mxCell id="3EePOaAs4NawGTgmt3iB-164" style="edgeStyle=orthogonalEdgeStyle;rounded=0;orthogonalLoop=1;jettySize=auto;html=1;exitX=1;exitY=0;exitDx=0;exitDy=0;entryX=0;entryY=0.5;entryDx=0;entryDy=0;" edge="1" parent="1" source="3EePOaAs4NawGTgmt3iB-151" target="3EePOaAs4NawGTgmt3iB-156">
          <mxGeometry relative="1" as="geometry" />
        </mxCell>
        <mxCell id="3EePOaAs4NawGTgmt3iB-151" value="Pertenece" style="rhombus;whiteSpace=wrap;html=1;" vertex="1" parent="1">
          <mxGeometry x="1340" y="980" width="80" height="80" as="geometry" />
        </mxCell>
        <mxCell id="3EePOaAs4NawGTgmt3iB-154" value="(1,n)" style="text;html=1;align=center;verticalAlign=middle;resizable=0;points=[];autosize=1;strokeColor=none;fillColor=none;" vertex="1" parent="1">
          <mxGeometry x="1375" y="218" width="50" height="30" as="geometry" />
        </mxCell>
        <mxCell id="3EePOaAs4NawGTgmt3iB-155" value="(o,n)" style="text;html=1;align=center;verticalAlign=middle;resizable=0;points=[];autosize=1;strokeColor=none;fillColor=none;" vertex="1" parent="1">
          <mxGeometry x="305" y="628" width="50" height="30" as="geometry" />
        </mxCell>
        <mxCell id="3EePOaAs4NawGTgmt3iB-156" value="Fecga Fin" style="ellipse;whiteSpace=wrap;html=1;" vertex="1" parent="1">
          <mxGeometry x="1425" y="980" width="100" height="40" as="geometry" />
        </mxCell>
        <mxCell id="3EePOaAs4NawGTgmt3iB-157" value="Fecha Inicio" style="ellipse;whiteSpace=wrap;html=1;" vertex="1" parent="1">
          <mxGeometry x="1400" y="940" width="100" height="40" as="geometry" />
        </mxCell>
        <mxCell id="3EePOaAs4NawGTgmt3iB-158" value="N:M" style="text;html=1;align=center;verticalAlign=middle;resizable=0;points=[];autosize=1;strokeColor=none;fillColor=none;" vertex="1" parent="1">
          <mxGeometry x="1355" y="1068" width="50" height="30" as="geometry" />
        </mxCell>
        <mxCell id="3EePOaAs4NawGTgmt3iB-159" value="F.Fin" style="ellipse;whiteSpace=wrap;html=1;" vertex="1" parent="1">
          <mxGeometry x="855" y="978" width="90" height="30" as="geometry" />
        </mxCell>
        <mxCell id="3EePOaAs4NawGTgmt3iB-160" value="F Inicio" style="ellipse;whiteSpace=wrap;html=1;" vertex="1" parent="1">
          <mxGeometry x="857.5" y="945" width="85" height="30" as="geometry" />
        </mxCell>
        <mxCell id="3EePOaAs4NawGTgmt3iB-163" style="edgeStyle=orthogonalEdgeStyle;rounded=0;orthogonalLoop=1;jettySize=auto;html=1;exitX=1;exitY=0;exitDx=0;exitDy=0;entryX=0.01;entryY=0.825;entryDx=0;entryDy=0;entryPerimeter=0;" edge="1" parent="1" source="3EePOaAs4NawGTgmt3iB-151" target="3EePOaAs4NawGTgmt3iB-157">
          <mxGeometry relative="1" as="geometry" />
        </mxCell>
      </root>
    </mxGraphModel>
  </diagram>
</mxfile>
